<?xml version="1.0" encoding="UTF-8"?>
<svg version="1.1" xmlns="http://www.w3.org/2000/svg" width="891" height="337">
<path d="M0 0 C294.03 0 588.06 0 891 0 C891 111.21 891 222.42 891 337 C596.97 337 302.94 337 0 337 C0 225.79 0 114.58 0 0 Z " fill="#FEFEFE" transform="translate(0,0)"/>
<path d="M0 0 C286.77 0 573.54 0 869 0 C869 4.29 869 8.58 869 13 C872.96 13 876.92 13 881 13 C881 13.99 881 14.98 881 16 C590.27 16 299.54 16 0 16 C0 10.72 0 5.44 0 0 Z " fill="#ED426D" transform="translate(10,299)"/>
<path d="M0 0 C7.59477841 -0.05109258 15.1895118 -0.08589701 22.78442383 -0.10986328 C25.36321672 -0.11986423 27.94199844 -0.13346932 30.52075195 -0.15087891 C34.24693577 -0.17538853 37.97296847 -0.18654254 41.69921875 -0.1953125 C42.8351799 -0.20563507 43.97114105 -0.21595764 45.14152527 -0.22659302 C56.75600701 -0.22818779 71.57853376 -0.04615065 80.61328125 8.39453125 C87.01794981 15.80951373 87.87161675 23.49414495 87.41796875 32.93359375 C86.72156453 41.40553637 82.95335289 48.91964224 77 55 C75.515 55.495 75.515 55.495 74 56 C74.47050781 56.4846875 74.94101562 56.969375 75.42578125 57.46875 C82.48357007 65.06719759 84.63397797 71.00566636 84.34375 81.4296875 C83.12514159 94.08659762 79.23168239 105.13193032 69.25 113.375 C64.56896547 116.58640741 59.4137919 118.39914756 54 120 C52.91138672 120.34369629 51.82277344 120.68739258 50.70117188 121.04150391 C44.51243224 122.56751857 38.20839413 122.24587429 31.875 122.1953125 C30.51880096 122.1915756 29.1625992 122.18873183 27.80639648 122.18673706 C24.26198685 122.1791538 20.71774492 122.15955195 17.17340088 122.1373291 C13.54661323 122.11675534 9.91979811 122.10771085 6.29296875 122.09765625 C-0.8047555 122.07630021 -7.90236672 122.04222958 -15 122 C-13.63274371 105.05555066 -11.58771646 88.22335802 -9.39238358 71.36935043 C-8.57791249 65.10402466 -7.77529448 58.83716317 -6.97265625 52.5703125 C-6.88546011 51.89038679 -6.79826397 51.21046108 -6.70842552 50.50993156 C-5.04115756 37.49486996 -3.50338196 24.46770173 -2.10400391 11.42114258 C-1.96784668 10.17228271 -1.83168945 8.92342285 -1.69140625 7.63671875 C-1.57998291 6.58186279 -1.46855957 5.52700684 -1.35375977 4.44018555 C-1 2 -1 2 0 0 Z " fill="#EE436E" transform="translate(259,77)"/>
<path d="M0 0 C12.54 0 25.08 0 38 0 C37.38194975 9.27075374 36.68538973 18.11492713 35.40234375 27.24609375 C35.10868755 29.98593461 34.95658238 32.49873783 34.97485352 35.23461914 C34.98315186 36.47719482 34.9914502 37.71977051 35 39 C35.64549805 38.03175293 36.29099609 37.06350586 36.95605469 36.06591797 C40.91341146 30.12988281 44.87076823 24.19384766 48.828125 18.2578125 C49.3251593 17.51226105 49.8221936 16.76670959 50.33428955 15.99856567 C51.05826935 14.91259598 51.05826935 14.91259598 51.796875 13.8046875 C52.257453 13.1138205 52.71803101 12.42295349 53.19256592 11.71115112 C54.06233388 10.40649918 54.94059457 9.10745741 55.82843018 7.81503296 C57.18914401 5.78570487 57.18914401 5.78570487 58.68554688 2.54882812 C61.32649402 -0.3595567 61.84285024 -0.41881646 65.58496094 -0.68115234 C67.46836616 -0.68020464 69.35194125 -0.64642955 71.234375 -0.5859375 C72.22753723 -0.57744781 73.22069946 -0.56895813 74.24395752 -0.56021118 C77.41374541 -0.52664388 80.58098215 -0.45135609 83.75 -0.375 C85.89970283 -0.34490481 88.04944556 -0.31752823 90.19921875 -0.29296875 C95.46701514 -0.22684253 100.73332534 -0.12646213 106 0 C104.61333975 2.85681057 103.17501776 5.18244185 101.12890625 7.6171875 C100.27607056 8.64017944 100.27607056 8.64017944 99.40600586 9.68383789 C98.79764893 10.40692139 98.18929199 11.13000488 97.5625 11.875 C92.66056066 17.76046345 87.83403936 23.68686432 83.13745117 29.73730469 C80.62699003 32.96086485 78.07226497 36.13928397 75.46484375 39.28515625 C74.86808838 40.00759521 74.27133301 40.73003418 73.65649414 41.47436523 C72.49345593 42.87839478 71.32490085 44.27787776 70.15014648 45.67211914 C69.36039429 46.6271936 69.36039429 46.6271936 68.5546875 47.6015625 C68.08530762 48.16182129 67.61592773 48.72208008 67.13232422 49.29931641 C65.75041637 51.37485976 65.17862756 52.48851292 65 55 C65.86570519 57.4963181 66.79041134 59.76948609 67.90234375 62.15234375 C68.21772598 62.84832169 68.53310822 63.54429962 68.85804749 64.2613678 C69.53100322 65.73907706 70.20975014 67.21416054 70.89379883 68.68676758 C71.91640638 70.89201179 72.91758762 73.10598851 73.91601562 75.32226562 C80.89510174 90.63980166 89.20639673 106.74321808 103 117 C101.97679954 119.82598221 101.14888473 120.9033216 98.59375 122.5625 C87.20192362 127.85567185 75.41017529 130.34333774 63 132 C62.12214844 132.14824219 61.24429688 132.29648438 60.33984375 132.44921875 C57.63595447 132.71740939 55.6273545 132.73078735 53 132 C50.14216051 129.06760818 48.65024675 125.71416721 47 122 C46.65122803 121.28368408 46.30245605 120.56736816 45.94311523 119.8293457 C41.7692665 111.08713032 38.76963946 101.97886282 35.6875 92.8125 C35.13267907 91.17625669 34.57734418 89.54018755 34.02148438 87.90429688 C32.67506355 83.9381785 31.33559312 79.96977703 30 76 C28.01613293 85.66167296 26.9558517 95.3945085 25.875 105.1875 C25.25625 110.735625 24.6375 116.28375 24 122 C11.46 122 -1.08 122 -14 122 C-13.3719969 113.83595969 -12.69631382 105.74890189 -11.73046875 97.62890625 C-11.60950836 96.59628662 -11.48854797 95.56366699 -11.36392212 94.49975586 C-10.97471612 91.18698353 -10.5813368 87.87472473 -10.1875 84.5625 C-10.05338715 83.4265036 -9.91927429 82.2905072 -9.78109741 81.12008667 C-8.0862282 66.76658797 -6.30869513 52.43126143 -4.33764648 38.11303711 C-2.61047233 25.43636934 -1.3119839 12.72624381 0 0 Z " fill="#EE436E" transform="translate(551,77)"/>
<path d="M0 0 C17.82 0 35.64 0 54 0 C54.495 6.93 54.495 6.93 55 14 C55.495 16.475 55.495 16.475 56 19 C56.25811131 21.75895059 56.4861565 24.51027001 56.68359375 27.2734375 C56.80788994 28.9205769 56.93224074 30.56771218 57.05664062 32.21484375 C57.24660762 34.7790334 57.43518802 37.34331634 57.62231445 39.90771484 C58.22652908 48.1362377 58.8447515 56.32668579 60 64.5 C61.27343561 73.50948095 61.90061474 82.55446138 62.5625 91.625 C62.75062968 94.18346707 62.9400854 96.74180682 63.13328552 99.29989624 C63.25211248 100.87455894 63.36805838 102.4494427 63.48060608 104.02456665 C63.69823031 106.91908555 63.94452729 109.73633618 64.54272461 112.57958984 C65 115 65 115 65 122 C52.13 122 39.26 122 26 122 C25.67 115.73 25.34 109.46 25 103 C17.74 103.33 10.48 103.66 3 104 C1.39597014 109.54865616 1.39597014 109.54865616 -0.20092773 115.09936523 C-1.88888889 120.88888889 -1.88888889 120.88888889 -3 122 C-5.8116338 122.08861992 -8.59858255 122.11522355 -11.41015625 122.09765625 C-12.25219101 122.0962413 -13.09422577 122.09482635 -13.96177673 122.09336853 C-16.66205335 122.08775263 -19.36224828 122.07519748 -22.0625 122.0625 C-23.88867068 122.05748705 -25.71484266 122.05292379 -27.54101562 122.04882812 C-32.02737542 122.03777804 -36.51367384 122.02050279 -41 122 C-39.79943499 116.11305175 -38.28657826 110.47401478 -36.3046875 104.8046875 C-35.90809685 103.65040756 -35.90809685 103.65040756 -35.50349426 102.47280884 C-34.6317842 99.93864599 -33.75338622 97.40685567 -32.875 94.875 C-32.25443163 93.07505332 -31.63440775 91.27491883 -31.01489258 89.47460938 C-30.03557954 86.62873604 -29.0559515 83.78297639 -28.07460022 80.93780518 C-25.63939187 73.87445934 -23.22957488 66.80277447 -20.83203125 59.7265625 C-20.48551514 58.70464813 -20.13899902 57.68273376 -19.78198242 56.62985229 C-17.74860716 50.63290509 -17.74860716 50.63290509 -15.71893311 44.63470459 C-10.66315166 29.68416216 -5.34745057 14.85402937 0 0 Z " fill="#EE436E" transform="translate(380,77)"/>
<path d="M0 0 C28.05 0 56.1 0 85 0 C83.82330097 15.29708738 83.82330097 15.29708738 83 22.6875 C82.9175 23.47060547 82.835 24.25371094 82.75 25.06054688 C82.12070875 30.7585825 82.12070875 30.7585825 81 33 C65.49 33 49.98 33 34 33 C33.67 37.29 33.34 41.58 33 46 C46.86 46 60.72 46 75 46 C73.89744771 57.02552295 72.68487167 68.04833413 71 79 C56.81 79 42.62 79 28 79 C27.505 84.94 27.505 84.94 27 91 C26.53869015 95.67106409 26.01946821 100.33507257 25.5 105 C25.36980469 106.20011719 25.23960938 107.40023437 25.10546875 108.63671875 C24.97785156 109.78785156 24.85023437 110.93898438 24.71875 112.125 C24.60466797 113.15882813 24.49058594 114.19265625 24.37304688 115.2578125 C24 118 24 118 23 122 C10.46 122 -2.08 122 -15 122 C-13.04770215 100.03664923 -10.34191175 78.17636535 -7.4765625 56.31640625 C-7.27855042 54.80503838 -7.27855042 54.80503838 -7.07653809 53.26313782 C-6.42438174 48.29208051 -5.7684354 43.32156398 -5.10644531 38.35180664 C-3.80733096 28.54437449 -2.59285591 18.74212164 -1.65255737 8.89285278 C-1.3451358 5.76697786 -0.99712997 2.99138991 0 0 Z " fill="#818185" transform="translate(25,77)"/>
<path d="M0 0 C-0.5486327 3.91477454 -1.10006388 7.82914379 -1.65405273 11.74316406 C-1.93425233 13.72700614 -2.21225628 15.71115793 -2.49023438 17.6953125 C-2.66748047 18.94570312 -2.84472656 20.19609375 -3.02734375 21.484375 C-3.27085571 23.21252441 -3.27085571 23.21252441 -3.51928711 24.97558594 C-3.90038856 27.3732928 -4.35552551 29.66283958 -5 32 C-6.75029762 31.68917128 -8.50022694 31.37626821 -10.25 31.0625 C-11.22453125 30.88847656 -12.1990625 30.71445313 -13.203125 30.53515625 C-14.79043329 30.23143944 -16.37449565 29.89966842 -17.93554688 29.48144531 C-24.89705686 27.85797113 -35.15709301 27.56944118 -41.75 30.625 C-48.95739746 35.242239 -52.49573618 42.49286467 -54.69140625 50.53125 C-56.77277456 60.42866572 -57.78916333 70.97037386 -53.16796875 80.23046875 C-50.6937328 83.97906033 -48.33893515 85.71282286 -44 87 C-41.3261098 87.2185664 -38.79580178 87.33190857 -36.125 87.3125 C-35.38773682 87.31121094 -34.65047363 87.30992187 -33.89086914 87.30859375 C-26.36860816 87.18002183 -19.29484444 85.78389209 -12 84 C-11.85625348 91.2731744 -12.28512198 98.38927518 -13 105.625 C-13.09539062 106.62917969 -13.19078125 107.63335937 -13.2890625 108.66796875 C-13.52186665 111.11241236 -13.7589064 113.5563625 -14 116 C-30.56151679 122.87924383 -51.81582282 125.77183871 -69 119 C-81.63442866 113.41852549 -87.96382362 106.22822207 -92.97265625 93.53515625 C-99.82908968 71.81780201 -94.87462333 44.08236649 -85 24 C-77.47410115 9.57690146 -66.05735628 1.39444503 -50.98828125 -4.09765625 C-36.1609653 -8.26481041 -13.31532283 -8.87688188 0 0 Z " fill="#EE436E" transform="translate(545,80)"/>
<path d="M0 0 C30.69 0 61.38 0 93 0 C93 10.125 93 10.125 92.34375 15.12890625 C92.22193359 16.08095947 92.10011719 17.0330127 91.97460938 18.01391602 C91.81798828 19.18494873 91.66136719 20.35598145 91.5 21.5625 C91.005 25.336875 90.51 29.11125 90 33 C80.43 33 70.86 33 61 33 C61 35.97 61 38.94 61 42 C60.80978456 44.36841622 60.57738187 46.73386241 60.30078125 49.09375 C60.22553223 49.7471788 60.1502832 50.4006076 60.07275391 51.07383728 C59.82451281 53.21653253 59.56872421 55.3582459 59.3125 57.5 C59.13469575 59.01566958 58.95721278 60.53137687 58.7800293 62.04711914 C58.2983898 66.15041369 57.80883511 70.2527263 57.31689453 74.35479736 C56.98854916 77.0955832 56.66209298 79.83658947 56.3359375 82.57763672 C55.77565716 87.28153044 55.21150275 91.98494429 54.64413452 96.68798828 C54.42366218 98.51587785 54.20378979 100.34383988 53.98452759 102.171875 C53.67596868 104.738616 53.36391636 107.30490751 53.05078125 109.87109375 C52.91349609 111.01879494 52.91349609 111.01879494 52.7734375 112.18968201 C52.35995995 115.54868599 51.82280418 118.70878328 51 122 C38.46 122 25.92 122 13 122 C14.12508986 107.37383178 14.12508986 107.37383178 14.796875 102.1015625 C15.02443481 100.29715698 15.02443481 100.29715698 15.2565918 98.45629883 C15.4194165 97.19197021 15.58224121 95.9276416 15.75 94.625 C15.92317393 93.26394666 16.09610002 91.90286176 16.26879883 90.54174805 C16.64102569 87.61303811 17.01537109 84.6846086 17.39111328 81.75634766 C17.93134415 77.54307594 18.46557611 73.32906138 18.99856567 69.11486816 C19.44930743 65.55294826 19.90185416 61.99125926 20.3548584 58.42962646 C20.57561899 56.69274695 20.79591946 54.95580888 21.01574707 53.21881104 C21.32512131 50.77715336 21.63685816 48.33580845 21.94921875 45.89453125 C22.04073715 45.16880417 22.13225555 44.44307709 22.22654724 43.69535828 C22.69114879 40.08377763 23.28460694 36.57696528 24 33 C14.76 33 5.52 33 -4 33 C-2.77636199 21.98725793 -1.37436854 10.99494833 0 0 Z " fill="#818185" transform="translate(160,77)"/>
<path d="M0 0 C12.54 0 25.08 0 38 0 C35.75650074 21.79399279 33.41213186 43.53925832 30.60791016 65.26757812 C30.01677138 69.85631304 29.43648341 74.4463946 28.85693359 79.03660583 C28.31251341 83.34830365 27.76635096 87.65977983 27.21990967 91.97122192 C26.94982548 94.10338988 26.68016727 96.23561185 26.41094971 98.3678894 C26.03226525 101.36397945 25.6512032 104.35975801 25.26953125 107.35546875 C25.15614914 108.25610046 25.04276703 109.15673218 24.9259491 110.08465576 C24.81865982 110.92321106 24.71137054 111.76176636 24.60083008 112.62573242 C24.50852615 113.35306076 24.41622223 114.0803891 24.32112122 114.82975769 C23.96539173 117.23389405 23.47662334 119.61688328 23 122 C10.46 122 -2.08 122 -15 122 C-12.83804456 101.98189412 -10.53683737 82.01435364 -7.86328125 62.05981445 C-6.26130406 50.09013986 -4.76897808 38.11036631 -3.34375 26.1184082 C-2.30499118 17.39904412 -1.16083495 8.70626212 0 0 Z " fill="#818185" transform="translate(117,77)"/>
<path d="M0 0 C9.93229757 4.31647522 15.10501875 15.49414036 19 25 C20.83961955 30.57080921 21.28726724 35.78599103 21.1875 41.625 C21.1865332 42.71167969 21.1865332 42.71167969 21.18554688 43.8203125 C21.15150398 47.99624088 20.70505649 51.8773033 20 56 C18.96090922 71.02228387 21.48225664 79.27215451 31.328125 90.96875 C33.52614057 93.63923621 33.97098027 94.7484957 34.375 98.25 C33.89454609 103.05453908 32.4565133 104.69376989 29 108 C25.6875 109.875 25.6875 109.875 23 111 C24.08784968 114.24983135 24.08784968 114.24983135 26 117 C26.44009364 120.87282401 26.28338319 122.56547911 24.125 125.875 C23.42375 126.57625 22.7225 127.2775 22 128 C21.34 128 20.68 128 20 128 C20.350625 128.70125 20.70125 129.4025 21.0625 130.125 C22.22110174 133.67804535 22.09325987 135.42868441 21 139 C20.16855469 139.8765625 19.33710937 140.753125 18.48046875 141.65625 C15.26378256 145.39259471 15.3250118 148.79279272 15.375 153.5625 C15.375 163.0625 15.375 163.0625 12 167 C2.19689103 173.19143724 -9.52797801 169.88423652 -20.125 167.5625 C-21.1135498 167.33304688 -22.10209961 167.10359375 -23.12060547 166.8671875 C-30.07735211 165.2733889 -36.87535011 164.41525 -44 164 C-42 162 -42 162 -38.37109375 161.8203125 C-34.24016958 161.92654425 -30.1572341 162.33309393 -26.0625 162.875 C-25.36012207 162.96378418 -24.65774414 163.05256836 -23.93408203 163.14404297 C-20.34995478 163.61600974 -16.87039978 164.20688373 -13.375 165.125 C-6.63148309 166.73927818 1.54887788 167.67892427 7.890625 164.59375 C11.51716459 160.13444947 10.55385476 154.97101713 10.44921875 149.44140625 C10.48296268 144.91297024 10.55526967 141.93626813 13.53125 138.3671875 C14.3459375 137.58601562 15.160625 136.80484375 16 136 C15.649375 135.278125 15.29875 134.55625 14.9375 133.8125 C13.85399556 130.56198669 13.77429275 129.18683884 15 126 C17.5625 123.6875 17.5625 123.6875 20 122 C19.53029274 119.8080328 19.0204734 118.03733385 17.9375 116.0625 C16.70966597 113.36126514 16.42708128 111.93620843 17 109 C19.68447913 106.43754264 22.25172873 104.47259238 25.375 102.5 C27.21551865 101.10522078 27.21551865 101.10522078 27.39453125 98.75390625 C26.83858444 94.87328743 24.96502357 93.28363842 22.3125 90.4375 C14.49205159 81.53018856 11.36477474 73.30495943 11.7265625 61.32421875 C11.91085654 59.0837298 12.17193877 56.84841013 12.50390625 54.625 C13.97656014 43.86419046 13.94674959 33.36687399 9.875 23.1875 C9 21 9 21 9 19 C8.34 19 7.68 19 7 19 C6.90460938 20.02867188 6.80921875 21.05734375 6.7109375 22.1171875 C3.65879789 38.78656538 -14.19368727 53.50299965 -25.83105469 64.58227539 C-33.33769621 71.87387527 -40.99950239 80.51222294 -42.2746582 91.33007812 C-42.30302797 93.72056261 -42.321795 96.1093253 -42.3125 98.5 C-42.32861328 99.32886719 -42.34472656 100.15773438 -42.36132812 101.01171875 C-42.36537776 106.10616091 -41.77326734 109.56277225 -39 114 C-38.01732141 115.20561184 -38.01732141 115.20561184 -36.15234375 115.09765625 C-33.07617188 115.04882812 -33.07617188 115.04882812 -30 115 C-34.06742795 119.90483959 -34.06742795 119.90483959 -38.0625 120.3125 C-41.49894518 118.77706705 -42.68384504 117.16300253 -44.1875 113.7421875 C-45.89492031 107.97964395 -46.40992177 101.96289579 -47 96 C-47.4898355 97.47566795 -47.9661592 98.95582103 -48.4375 100.4375 C-48.70433594 101.26121094 -48.97117187 102.08492188 -49.24609375 102.93359375 C-51.12278976 110.56678738 -51.13325346 118.24152093 -51.0625 126.0625 C-51.05798828 127.02349609 -51.05347656 127.98449219 -51.04882812 128.97460938 C-51.03717706 131.31647422 -51.02082025 133.65820181 -51 136 C-56.77873107 127.33190339 -55.06884869 110.80520241 -53.69970703 100.80712891 C-52.91231918 97.00660334 -51.58427123 93.53150243 -50 90 C-49.32904297 88.453125 -49.32904297 88.453125 -48.64453125 86.875 C-43.8475951 76.58666509 -37.16218854 68.78057973 -29 61 C-32.67751948 63.3165477 -36.34035433 65.65533054 -40 68 C-41.00675781 68.63679688 -42.01351562 69.27359375 -43.05078125 69.9296875 C-49.97772901 74.40390279 -56.04768568 79.30264478 -62 85 C-62.77214844 85.69738281 -63.54429687 86.39476562 -64.33984375 87.11328125 C-77.99304776 99.87961047 -85.78097222 118.00428836 -87.28515625 136.5078125 C-87.99347245 164.03975534 -73.96383851 186.48825704 -56 206 C-59 206 -59 206 -60.76171875 204.6015625 C-79.26863219 185.60663714 -92.3125 161.93151326 -92.3125 134.87719727 C-91.91420314 113.52984355 -81.23331044 94.54673104 -66.75 79.375 C-57.20911172 70.22822759 -46.22878092 63.06894046 -35.2421875 55.81640625 C-19.73009084 45.55619371 -5.76808177 35.23608202 0.6328125 17.21875 C1.18607672 13.87562153 0.83844217 10.60571058 0.5625 7.25 C0.51029297 6.55261719 0.45808594 5.85523438 0.40429688 5.13671875 C0.27525928 3.42403797 0.13840386 1.71194934 0 0 Z " fill="#6F7070" transform="translate(843,57)"/>
<path d="M0 0 C3.67956291 1.56232021 6.16515793 3.83584082 9.0625 6.5625 C12.75363459 9.9953483 16.50410259 13.27938092 20.4375 16.4375 C24.62696743 19.82782047 28.69273458 23.32189072 32.6875 26.9375 C33.21722412 27.41050537 33.74694824 27.88351074 34.29272461 28.37084961 C35.56861003 29.53816709 36.78992959 30.7645878 38 32 C38 32.66 38 33.32 38 34 C34.37 34.99 30.74 35.98 27 37 C27.04640625 38.30453125 27.0928125 39.6090625 27.140625 40.953125 C27.55167579 57.2716852 25.05056613 69.88085182 13.81640625 82.44140625 C2.47001441 93.45243676 -11.23422897 98.38070282 -26.875 98.25 C-28.298125 98.26160156 -28.298125 98.26160156 -29.75 98.2734375 C-30.65492188 98.27085937 -31.55984375 98.26828125 -32.4921875 98.265625 C-33.31058105 98.26336914 -34.12897461 98.26111328 -34.97216797 98.25878906 C-37 98 -37 98 -39 96 C-37.94941406 95.70867187 -36.89882813 95.41734375 -35.81640625 95.1171875 C-23.25431716 91.50663472 -13.83422931 86.95768021 -6 76 C-2.68417744 69.92784852 0.150742 63.89794394 0.09765625 56.890625 C0.09443359 56.13652344 0.09121094 55.38242188 0.08789062 54.60546875 C0.07951172 53.82816406 0.07113281 53.05085938 0.0625 52.25 C0.05798828 51.45722656 0.05347656 50.66445312 0.04882812 49.84765625 C0.03708565 47.89840492 0.01915146 45.94919262 0 44 C-0.90363281 44.30035156 -1.80726563 44.60070312 -2.73828125 44.91015625 C-4.50751953 45.48056641 -4.50751953 45.48056641 -6.3125 46.0625 C-7.48425781 46.44535156 -8.65601563 46.82820313 -9.86328125 47.22265625 C-13 48 -13 48 -16 47 C-10.80017278 31.28512444 -5.53245037 15.60115425 0 0 Z " fill="#EE446E" transform="translate(670,117)"/>
<path d="M0 0 C0.99 0.495 0.99 0.495 2 1 C-6.50129511 6.885512 -15.29332958 11.80352977 -24.5 16.5 C-39.51402135 24.20194043 -52.50589759 32.62532324 -65 44 C-65.77214844 44.68835938 -66.54429687 45.37671875 -67.33984375 46.0859375 C-80.67172482 58.59942587 -88.69413316 75.06336077 -89.3359375 93.35546875 C-89.36568952 95.63265537 -89.378206 97.91012128 -89.375 100.1875 C-89.37338867 101.37915771 -89.37177734 102.57081543 -89.37011719 103.79858398 C-89.20189016 115.90515729 -86.61840103 126.08853005 -81.63671875 137.14453125 C-81.42660156 137.75683594 -81.21648438 138.36914062 -81 139 C-81.33 139.66 -81.66 140.32 -82 141 C-86.68652008 132.21935704 -90.53686321 123.70401629 -93 114 C-93.22558594 113.13375 -93.45117188 112.2675 -93.68359375 111.375 C-97.99216036 91.88245036 -94.51806088 71.8951529 -84 55 C-81.22760706 51.40985087 -78.22135577 48.1883726 -75 45 C-74.22398437 44.21109375 -73.44796875 43.4221875 -72.6484375 42.609375 C-70.78138975 40.72253523 -68.90007326 38.85347746 -67 37 C-86.93897595 48.99423892 -100.65775039 62.67092324 -108 85 C-108.33 85 -108.66 85 -109 85 C-110.19973663 72.76268633 -103.34551067 60.87888425 -96.0390625 51.4765625 C-83.15927051 36.3648932 -65.82843925 27.93600154 -47.52197266 21.23461914 C-39.86043017 18.40504856 -32.39648048 15.19950092 -24.9375 11.875 C-23.83229004 11.38410889 -22.72708008 10.89321777 -21.58837891 10.38745117 C-15.0661562 7.46063682 -8.68443726 4.35310909 -2.36547852 1.00830078 C-1.58487061 0.67556152 -0.8042627 0.34282227 0 0 Z " fill="#6F7070" transform="translate(818,95)"/>
<path d="M0 0 C0.99 0.33 1.98 0.66 3 1 C4.14135076 3.31889577 5.09059705 5.54692118 5.99609375 7.95703125 C6.2709108 8.65640305 6.54572784 9.35577484 6.82887268 10.07633972 C7.70914451 12.31771698 8.57486926 14.56427915 9.4375 16.8125 C10.57001891 19.76136473 11.71644074 22.7042741 12.87109375 25.64453125 C13.25254799 26.65879936 13.25254799 26.65879936 13.64170837 27.69355774 C15.17815133 31.60478728 16.79551433 34.26463265 20 37 C16.8125 37.375 16.8125 37.375 13 37 C9.95808359 34.57416793 8.22916326 31.68748979 7 28 C1.72 27.67 -3.56 27.34 -9 27 C-9.4125 28.464375 -9.825 29.92875 -10.25 31.4375 C-10.953125 33.93359375 -10.953125 33.93359375 -12 36 C-14.06542969 36.62915039 -14.06542969 36.62915039 -16 37 C-12.1459905 27.21779024 -8.27012426 17.44906478 -4.0625 7.8125 C-3.76851318 7.13638672 -3.47452637 6.46027344 -3.17163086 5.76367188 C-1.12815073 1.12815073 -1.12815073 1.12815073 0 0 Z " fill="#6E6F6F" transform="translate(27,236)"/>
<path d="M0 0 C2.60478883 -0.0809313 5.20706653 -0.14045434 7.8125 -0.1875 C8.55048828 -0.21263672 9.28847656 -0.23777344 10.04882812 -0.26367188 C15.41733771 -0.33654757 15.41733771 -0.33654757 17.98828125 1.1484375 C20.25818918 5.30263194 19.45256951 10.43206513 19 15 C17.47506657 19.2117209 16.72020689 20.51986208 13 23 C10.39754502 23.14221065 7.90882316 23.18802932 5.3125 23.125 C4.61060547 23.11597656 3.90871094 23.10695312 3.18554688 23.09765625 C1.45688475 23.07413704 -0.27160145 23.03826713 -2 23 C-2.27990605 15.10042938 -1.51537186 7.7527507 0 0 Z " fill="#FEFCFC" transform="translate(286,148)"/>
<path d="M0 0 C6.0546875 -0.1953125 6.0546875 -0.1953125 8 0 C10 2 10 2 10.1953125 5.4765625 C10.18387695 6.85952633 10.15791258 8.24238057 10.125 9.625 C10.08375 12.05875 10.0425 14.4925 10 17 C15.61 17 21.22 17 27 17 C27 11.39 27 5.78 27 0 C28.65 0 30.3 0 32 0 C32.0093457 1.01425049 32.01869141 2.02850098 32.02832031 3.07348633 C32.06819362 6.83662842 32.13394342 10.5989506 32.20751953 14.36157227 C32.23574489 15.99004585 32.25695172 17.61865683 32.27099609 19.24731445 C32.29240532 21.58876971 32.33903964 23.92857045 32.390625 26.26953125 C32.39185364 26.99775589 32.39308228 27.72598053 32.39434814 28.47627258 C32.51591769 32.71671448 32.51591769 32.71671448 35.03808594 35.9831543 C35.68551758 36.31871338 36.33294922 36.65427246 37 37 C34.03 37 31.06 37 28 37 C26.40726856 33.81453711 26.89858167 30.36800652 26.9375 26.875 C26.958125 24.27625 26.97875 21.6775 27 19 C21.39 19 15.78 19 10 19 C10 24.94 10 30.88 10 37 C8.35 37 6.7 37 5 37 C4.67 25.78 4.34 14.56 4 3 C2.68 2.67 1.36 2.34 0 2 C0 1.34 0 0.68 0 0 Z " fill="#696A6A" transform="translate(321,236)"/>
<path d="M0 0 C4.73198365 0.03389673 8.8131016 0.7506016 12.3125 4.25 C12.38429964 5.76928038 12.39642007 7.29167482 12.375 8.8125 C12.36597656 9.63878906 12.35695312 10.46507812 12.34765625 11.31640625 C12.33605469 11.95449219 12.32445312 12.59257812 12.3125 13.25 C11.08753707 11.4125556 9.90814016 9.54237027 8.8125 7.625 C7.53223738 5.1442773 7.53223738 5.1442773 5.3125 4.25 C3.79404798 4.15527088 2.27139616 4.1201159 0.75 4.125 C-0.05566406 4.12242187 -0.86132812 4.11984375 -1.69140625 4.1171875 C-3.68692021 4.02988609 -3.68692021 4.02988609 -4.6875 5.25 C-4.81302438 8.63596594 -4.81302438 8.63596594 -3.6875 12.25 C-1.36947658 14.17818766 0.53383024 15.51300768 3.125 16.9375 C11.49642983 21.77870558 11.49642983 21.77870558 14.3125 25.25 C14.80433989 29.11445626 14.64711084 31.49712561 13.0625 35.0625 C10.62889883 38.10450147 8.59905988 39.10035482 4.7265625 39.55078125 C-0.80592078 39.57402698 -4.95714124 39.48656125 -9.6875 36.25 C-11.29475635 33.03548731 -10.74498185 29.81387464 -10.6875 26.25 C-10.0275 26.25 -9.3675 26.25 -8.6875 26.25 C-8.23375 27.36375 -7.78 28.4775 -7.3125 29.625 C-5.96284014 33.21199008 -5.96284014 33.21199008 -3.6875 35.25 C-1.31794614 35.56899515 -1.31794614 35.56899515 1.3125 35.5 C2.6428125 35.50773437 2.6428125 35.50773437 4 35.515625 C6.50650239 35.47052862 6.50650239 35.47052862 8.3125 33.25 C8.52256847 30.30440064 8.52256847 30.30440064 7.3125 27.25 C5.02368595 25.44678168 3.01281955 24.08407207 0.5 22.6875 C-4.11398739 20.04756249 -7.71383217 17.82769063 -10.6875 13.25 C-11.25 9.75 -11.25 9.75 -10.6875 6.25 C-8.25 3.375 -8.25 3.375 -5.6875 1.25 C-4.05737162 -0.38012838 -2.24312555 0.04023544 0 0 Z " fill="#6F7070" transform="translate(181.6875,234.75)"/>
<path d="M0 0 C4.29161047 -0.05783842 8.58312145 -0.0935412 12.875 -0.125 C14.09832031 -0.14175781 15.32164062 -0.15851563 16.58203125 -0.17578125 C17.74863281 -0.18222656 18.91523438 -0.18867188 20.1171875 -0.1953125 C21.19597168 -0.20578613 22.27475586 -0.21625977 23.38623047 -0.22705078 C26 0 26 0 28 2 C28.125 5.625 28.125 5.625 28 9 C26 6 26 6 25 4 C22.45058627 3.68758629 19.99638487 3.48696579 17.4375 3.375 C16.72658203 3.33632812 16.01566406 3.29765625 15.28320312 3.2578125 C13.52257575 3.16328217 11.76132272 3.08054183 10 3 C10 7.62 10 12.24 10 17 C14.95 17 19.9 17 25 17 C25 17.66 25 18.32 25 19 C20.05 19 15.1 19 10 19 C10 24.28 10 29.56 10 35 C11.876875 34.855625 13.75375 34.71125 15.6875 34.5625 C16.74324219 34.48128906 17.79898437 34.40007812 18.88671875 34.31640625 C21.67082923 34.03345399 24.29917757 33.73308037 27 33 C28.36020151 31.03241727 28.36020151 31.03241727 29 29 C29.33 29.66 29.66 30.32 30 31 C29.01 32.98 28.02 34.96 27 37 C19.41 37 11.82 37 4 37 C4 25.45 4 13.9 4 2 C2.68 1.34 1.36 0.68 0 0 Z " fill="#717272" transform="translate(405,236)"/>
<path d="M0 0 C4.45827926 -0.0578304 8.9164628 -0.09353855 13.375 -0.125 C15.28152344 -0.15013672 15.28152344 -0.15013672 17.2265625 -0.17578125 C18.43828125 -0.18222656 19.65 -0.18867188 20.8984375 -0.1953125 C22.01911621 -0.20578613 23.13979492 -0.21625977 24.29443359 -0.22705078 C27 0 27 0 29 2 C29.125 5.625 29.125 5.625 29 9 C28.34 9 27.68 9 27 9 C26.34 7.35 25.68 5.7 25 4 C20.05 3.67 15.1 3.34 10 3 C10 7.62 10 12.24 10 17 C14.95 17 19.9 17 25 17 C25 17.66 25 18.32 25 19 C20.05 19 15.1 19 10 19 C10 24.28 10 29.56 10 35 C13.0628125 34.8453125 13.0628125 34.8453125 16.1875 34.6875 C17.33605469 34.62949219 18.48460938 34.57148438 19.66796875 34.51171875 C23.17999272 33.97235751 25.16299098 33.1005277 28 31 C28.33 30.34 28.66 29.68 29 29 C29.66 29.33 30.32 29.66 31 30 C28.125 35.875 28.125 35.875 27 37 C25.36527118 37.08700342 23.72685945 37.10701063 22.08984375 37.09765625 C21.199021 37.09515869 20.30819824 37.09266113 19.39038086 37.09008789 C18.25093018 37.08098389 17.11147949 37.07187988 15.9375 37.0625 C12.328125 37.041875 8.71875 37.02125 5 37 C4.67 25.78 4.34 14.56 4 3 C2.68 2.67 1.36 2.34 0 2 C0 1.34 0 0.68 0 0 Z " fill="#6E6F6F" transform="translate(91,236)"/>
<path d="M0 0 C2.9375 1.6875 2.9375 1.6875 4.9375 4.6875 C5.01655064 7.01949388 5.02548769 9.35582622 4.9375 11.6875 C4.2775 11.6875 3.6175 11.6875 2.9375 11.6875 C2.67195312 11.12160156 2.40640625 10.55570313 2.1328125 9.97265625 C1.77960937 9.23917969 1.42640625 8.50570312 1.0625 7.75 C0.71445312 7.01910156 0.36640625 6.28820312 0.0078125 5.53515625 C-0.9309977 3.52417541 -0.9309977 3.52417541 -3.0625 2.6875 C-8.50731107 2.07375318 -12.67838533 1.66325515 -17.1875 5 C-20.22602901 9.35522491 -20.25061789 12.78643224 -20.3125 18 C-20.33828125 19.29550781 -20.3640625 20.59101563 -20.390625 21.92578125 C-19.95889276 26.87528296 -18.67960327 30.30141148 -14.875 33.5625 C-11.13523039 35.05840784 -7.96083295 35.72800569 -4.0625 34.6875 C-1.07983846 32.64485956 1.43894956 30.29237173 3.9375 27.6875 C4.2675 28.6775 4.5975 29.6675 4.9375 30.6875 C2.43299729 34.63690812 0.33809133 36.27956332 -4.0625 37.6875 C-9.59263717 38.32759663 -14.4711852 38.42632473 -19.5625 36.0625 C-25.09873291 30.80307874 -27.20810052 26.02606743 -27.4375 18.5 C-27.36348256 11.10648022 -25.52163833 7.35328816 -20.55859375 2.09375 C-14.77282906 -2.9252266 -6.90624707 -2.69617579 0 0 Z " fill="#6F7070" transform="translate(649.0625,236.3125)"/>
<path d="M0 0 C1.91595968 -0.08133791 3.83291932 -0.13934367 5.75 -0.1875 C7.35101563 -0.23970703 7.35101563 -0.23970703 8.984375 -0.29296875 C12.37275039 0.0362128 13.7122131 0.49380863 16 3 C16.96941309 7.50357263 16.52241058 11.80591867 14.6875 16 C13 18 13 18 10 20 C7.08203125 20.1953125 7.08203125 20.1953125 3.8125 20.125 C2.72582031 20.10695313 1.63914062 20.08890625 0.51953125 20.0703125 C-0.72763672 20.03550781 -0.72763672 20.03550781 -2 20 C-1.03644647 6.3667426 -1.03644647 6.3667426 0 0 Z " fill="#FEF9FA" transform="translate(291,105)"/>
<path d="M0 0 C1.20446777 0.01047363 2.40893555 0.02094727 3.64990234 0.03173828 C5.60283203 0.04140625 5.60283203 0.04140625 7.59521484 0.05126953 C8.9754258 0.06798149 10.35563413 0.08491139 11.73583984 0.10205078 C13.12385436 0.11208072 14.51187574 0.12120655 15.89990234 0.12939453 C19.3037201 0.15303215 22.70719491 0.18598211 26.11083984 0.22705078 C26.11083984 1.21705078 26.11083984 2.20705078 26.11083984 3.22705078 C22.15083984 3.22705078 18.19083984 3.22705078 14.11083984 3.22705078 C14.11083984 14.44705078 14.11083984 25.66705078 14.11083984 37.22705078 C12.13083984 37.22705078 10.15083984 37.22705078 8.11083984 37.22705078 C8.11083984 26.00705078 8.11083984 14.78705078 8.11083984 3.22705078 C3.65583984 3.72205078 3.65583984 3.72205078 -0.88916016 4.22705078 C-1.54916016 5.87705078 -2.20916016 7.52705078 -2.88916016 9.22705078 C-3.54916016 9.22705078 -4.20916016 9.22705078 -4.88916016 9.22705078 C-5.01416016 5.85205078 -5.01416016 5.85205078 -4.88916016 2.22705078 C-2.88916016 0.22705078 -2.88916016 0.22705078 0 0 Z " fill="#757676" transform="translate(248.88916015625,235.77294921875)"/>
<path d="M0 0 C0.33 0 0.66 0 1 0 C1.66509667 13.34261759 2.16139646 26.63995943 2 40 C-2.29 40 -6.58 40 -11 40 C-8.88100861 31.43303481 -6.66823304 22.8968872 -4.375 14.375 C-4.06304687 13.20582031 -3.75109375 12.03664063 -3.4296875 10.83203125 C-3.130625 9.71957031 -2.8315625 8.60710937 -2.5234375 7.4609375 C-2.1200415 5.95732666 -2.1200415 5.95732666 -1.70849609 4.42333984 C-1 2 -1 2 0 0 Z " fill="#FDF0F3" transform="translate(402,112)"/>
<path d="M0 0 C0.66 0.33 1.32 0.66 2 1 C1.3709375 1.53367188 0.741875 2.06734375 0.09375 2.6171875 C-8.51297314 10.10918445 -15.09385368 17.73057827 -20.3125 27.875 C-20.63814941 28.49834229 -20.96379883 29.12168457 -21.29931641 29.76391602 C-26.538006 40.45242284 -27.42691663 50.98789063 -27.1875 62.75 C-27.17396484 64.03132813 -27.16042969 65.31265625 -27.14648438 66.6328125 C-27.11152705 69.75566695 -27.0624609 72.87759541 -27 76 C-32.01670048 70.98329952 -31.24963806 61.84005177 -31.3125 55.125 C-31.19273585 38.42987714 -24.87226832 21.12168572 -13 9 C-9.04397524 5.51493057 -4.93788085 1.98554788 0 0 Z " fill="#777878" transform="translate(727,49)"/>
<path d="M0 0 C1.20446777 0.01047363 2.40893555 0.02094727 3.64990234 0.03173828 C5.60283203 0.04140625 5.60283203 0.04140625 7.59521484 0.05126953 C8.9754258 0.06798149 10.35563413 0.08491139 11.73583984 0.10205078 C13.12385436 0.11208072 14.51187574 0.12120655 15.89990234 0.12939453 C19.3037201 0.15303215 22.70719491 0.18598211 26.11083984 0.22705078 C26.11083984 0.88705078 26.11083984 1.54705078 26.11083984 2.22705078 C21.82083984 2.22705078 17.53083984 2.22705078 13.11083984 2.22705078 C13.11083984 13.77705078 13.11083984 25.32705078 13.11083984 37.22705078 C11.46083984 37.22705078 9.81083984 37.22705078 8.11083984 37.22705078 C8.11083984 26.00705078 8.11083984 14.78705078 8.11083984 3.22705078 C4.48083984 3.55705078 0.85083984 3.88705078 -2.88916016 4.22705078 C-3.21916016 5.87705078 -3.54916016 7.52705078 -3.88916016 9.22705078 C-4.21916016 9.22705078 -4.54916016 9.22705078 -4.88916016 9.22705078 C-5.01416016 5.85205078 -5.01416016 5.85205078 -4.88916016 2.22705078 C-2.88916016 0.22705078 -2.88916016 0.22705078 0 0 Z " fill="#6A6B6B" transform="translate(487.88916015625,235.77294921875)"/>
<path d="M0 0 C6.91373949 -0.51002996 12.31088633 -0.22855446 18 4 C23.62859459 9.31774518 26.97725629 13.91565419 27.375 21.75 C27.26267204 27.11767168 25.84071108 31.45102348 23 36 C20.75 38.0625 20.75 38.0625 19 39 C19.33 38.0925 19.66 37.185 20 36.25 C21.97949456 29.22920274 22.25068338 20.63762456 19.2265625 13.8828125 C16.01581032 8.95420564 11.80854418 4.94398291 6.1875 3.0546875 C3.78435523 2.56996228 1.44175807 2.20390464 -1 2 C-0.67 1.34 -0.34 0.68 0 0 Z " fill="#757676" transform="translate(807,34)"/>
<path d="M0 0 C1.65 0 3.3 0 5 0 C5.01401855 1.52137573 5.01401855 1.52137573 5.02832031 3.07348633 C5.06819362 6.83662842 5.13394342 10.5989506 5.20751953 14.36157227 C5.23574489 15.99004585 5.25695172 17.61865683 5.27099609 19.24731445 C5.29240532 21.58876971 5.33903964 23.92857045 5.390625 26.26953125 C5.39185364 26.99775589 5.39308228 27.72598053 5.39434814 28.47627258 C5.51591769 32.71671448 5.51591769 32.71671448 8.03808594 35.9831543 C8.68551758 36.31871338 9.33294922 36.65427246 10 37 C7.03 37 4.06 37 1 37 C-0.55977064 33.88045872 -0.12104126 30.57040616 -0.09765625 27.1484375 C-0.0962413 26.37440582 -0.09482635 25.60037415 -0.09336853 24.80288696 C-0.08776403 22.32688558 -0.07521083 19.85097412 -0.0625 17.375 C-0.05748558 15.69791797 -0.05292257 14.02083453 -0.04882812 12.34375 C-0.03779315 8.22913194 -0.02052554 4.11458122 0 0 Z " fill="#686969" transform="translate(564,236)"/>
<path d="M0 0 C3 1 3 1 4.16796875 3.1796875 C4.50441406 4.06914062 4.84085938 4.95859375 5.1875 5.875 C5.53167969 6.75929687 5.87585937 7.64359375 6.23046875 8.5546875 C7 11 7 11 7 14 C3.04 14 -0.92 14 -5 14 C-1.85714286 4.42857143 -1.85714286 4.42857143 0 0 Z " fill="#F8F8F8" transform="translate(25,246)"/>
<path d="M0 0 C1.46875 1.07421875 1.46875 1.07421875 3 3 C3.40625 6.14453125 3.40625 6.14453125 3.5 9.8125 C3.63540816 15.07649209 4.06419044 20.06419044 8 24 C10.67058851 24.14115161 13.32432238 24.04247107 16 24 C11.93257205 28.90483959 11.93257205 28.90483959 7.9375 29.3125 C4.15151805 27.62089104 3.39984241 25.789519 1.76171875 22.10546875 C0.16835137 17.7012379 -0.28305984 13.55469535 -0.625 8.875 C-0.72039063 7.63492188 -0.81578125 6.39484375 -0.9140625 5.1171875 C-1 2 -1 2 0 0 Z " fill="#777878" transform="translate(797,148)"/>
<path d="M0 0 C0.67804687 0.28875 1.35609375 0.5775 2.0546875 0.875 C11.0922994 4.48003079 18.52749862 4.64739154 28 3 C25.33967078 5.92636215 22.8518302 7.77716653 18.84936523 8.25878906 C18.09341064 8.26104492 17.33745605 8.26330078 16.55859375 8.265625 C15.72779297 8.26820313 14.89699219 8.27078125 14.04101562 8.2734375 C13.18185547 8.26570312 12.32269531 8.25796875 11.4375 8.25 C10.14295898 8.26160156 10.14295898 8.26160156 8.82226562 8.2734375 C7.99275391 8.27085937 7.16324219 8.26828125 6.30859375 8.265625 C5.55376709 8.26336914 4.79894043 8.26111328 4.02124023 8.25878906 C2 8 2 8 -1 6 C-0.34 5.67 0.32 5.34 1 5 C0.67 3.35 0.34 1.7 0 0 Z " fill="#777878" transform="translate(819,131)"/>
<path d="M0 0 C6.11382319 -0.32623167 10.66175896 -0.42194939 16 3 C17 4 17 4 17.09765625 6.06640625 C17.08605469 6.89011719 17.07445312 7.71382812 17.0625 8.5625 C17.05347656 9.38878906 17.04445312 10.21507812 17.03515625 11.06640625 C17.02355469 11.70449219 17.01195312 12.34257812 17 13 C15 10 15 10 14 7.4375 C10.86542877 3.61724131 6.73196303 3.59482462 2 3 C2 2.34 2 1.68 2 1 C1.34 0.67 0.68 0.34 0 0 Z " fill="#777878" transform="translate(177,235)"/>
<path d="M0 0 C4.27232306 0.10905184 8.4736211 0.55743857 12.70703125 1.12109375 C13.40892578 1.20810547 14.11082031 1.29511719 14.83398438 1.38476562 C17.82116731 1.76919813 20.52942657 2.22855886 23.39453125 3.18359375 C23.06453125 4.17359375 22.73453125 5.16359375 22.39453125 6.18359375 C20.87085938 5.87615234 20.87085938 5.87615234 19.31640625 5.5625 C11.01556548 3.92518748 2.86041964 2.64857626 -5.60546875 2.18359375 C-3.60546875 0.18359375 -3.60546875 0.18359375 0 0 Z " fill="#858686" transform="translate(804.60546875,218.81640625)"/>
<path d="M0 0 C0.66 0 1.32 0 2 0 C2.680625 1.670625 2.680625 1.670625 3.375 3.375 C4.72465986 6.96199008 4.72465986 6.96199008 7 9 C9.65537372 9.56520003 12.29144713 9.73788198 15 10 C15 10.33 15 10.66 15 11 C13.02 11 11.04 11 9 11 C9 11.66 9 12.32 9 13 C1.74193548 10.90322581 1.74193548 10.90322581 0 8 C-0.24222254 5.28172479 -0.13476191 2.74015885 0 0 Z " fill="#7F7F7F" transform="translate(171,261)"/>
<path d="M0 0 C2.2792588 3.20784572 1.98309984 5.53220211 1.6875 9.375 C1.0275 9.375 0.3675 9.375 -0.3125 9.375 C-0.48523438 8.82070312 -0.65796875 8.26640625 -0.8359375 7.6953125 C-1.78274501 5.2544601 -2.65606189 3.41433335 -4.3125 1.375 C-7.59988266 0.08684065 -10.80393449 -0.35717057 -14.3125 -0.625 C-14.3125 -0.955 -14.3125 -1.285 -14.3125 -1.625 C-4.72117993 -3.3175859 -4.72117993 -3.3175859 0 0 Z " fill="#818282" transform="translate(652.3125,238.625)"/>
<path d="M0 0 C0.80179688 0.00451172 1.60359375 0.00902344 2.4296875 0.01367188 C4.41149006 0.02546832 6.39325433 0.04340395 8.375 0.0625 C8.375 0.3925 8.375 0.7225 8.375 1.0625 C3.095 1.0625 -2.185 1.0625 -7.625 1.0625 C-8.0375 2.526875 -8.45 3.99125 -8.875 5.5 C-9.578125 7.99609375 -9.578125 7.99609375 -10.625 10.0625 C-12.734375 10.84765625 -12.734375 10.84765625 -14.625 11.0625 C-14.00848417 9.4134698 -13.38152258 7.76834159 -12.75 6.125 C-12.40195313 5.20847656 -12.05390625 4.29195313 -11.6953125 3.34765625 C-9.45515438 -1.4351631 -4.60539645 -0.0485959 0 0 Z " fill="#838484" transform="translate(25.625,261.9375)"/>
<path d="M0 0 C0.99 0.33 1.98 0.66 3 1 C2.34 1 1.68 1 1 1 C0.80664062 1.59167969 0.61328125 2.18335938 0.4140625 2.79296875 C-0.94414719 6.9146645 -2.32050585 10.9950524 -4 15 C-4.99 15 -5.98 15 -7 15 C-3.4028777 3.99280576 -3.4028777 3.99280576 -2 1 C-1.34 0.67 -0.68 0.34 0 0 Z " fill="#787979" transform="translate(24,245)"/>
<path d="M0 0 C0.66 0 1.32 0 2 0 C3.19140625 1.3984375 3.19140625 1.3984375 4.5625 3.375 C8.33123803 8.59325266 12.64111566 13.27303209 17 18 C14 18 14 18 12.16796875 16.49609375 C10.09706433 14.34349685 8.03227763 12.18919549 6 10 C5.38769531 9.34515625 4.77539062 8.6903125 4.14453125 8.015625 C0 3.40840261 0 3.40840261 0 0 Z " fill="#8A8A8A" transform="translate(770,245)"/>
<path d="M0 0 C2.33364352 2.92903058 4.04960836 5.88568203 5.6875 9.25 C6.12449219 10.14203125 6.56148437 11.0340625 7.01171875 11.953125 C7.33785156 12.62859375 7.66398438 13.3040625 8 14 C7.01 14 6.02 14 5 14 C3.359375 11.953125 3.359375 11.953125 1.75 9.25 C1.20859375 8.36828125 0.6671875 7.4865625 0.109375 6.578125 C-1 4 -1 4 -0.671875 1.671875 C-0.45015625 1.12015625 -0.2284375 0.5684375 0 0 Z " fill="#7B7C7C" transform="translate(763,231)"/>
<path d="M0 0 C3.63 0 7.26 0 11 0 C11 0.99 11 1.98 11 3 C7.37 3 3.74 3 0 3 C0 2.01 0 1.02 0 0 Z " fill="#505051" transform="translate(880,312)"/>
<path d="M0 0 C0.66 0.33 1.32 0.66 2 1 C-2.62 3.97 -7.24 6.94 -12 10 C-12.66 9.01 -13.32 8.02 -14 7 C-11.71296692 5.80274117 -9.42115138 4.61702982 -7.125 3.4375 C-6.14853516 2.92413086 -6.14853516 2.92413086 -5.15234375 2.40039062 C-3.46470143 1.53917109 -1.73420407 0.76313297 0 0 Z " fill="#808181" transform="translate(818,95)"/>
<path d="M0 0 C1.18771723 3.42943519 0.80226223 5.37784675 -0.4375 8.75 C-0.86869141 9.94882813 -0.86869141 9.94882813 -1.30859375 11.171875 C-1.65083984 12.07679688 -1.65083984 12.07679688 -2 13 C-2.33 13 -2.66 13 -3 13 C-3.27429625 7.60550707 -3.36055646 4.48074195 0 0 Z " fill="#848585" transform="translate(712,167)"/>
<path d="M0 0 C0.33 0.99 0.66 1.98 1 3 C-0.65 4.65 -2.3 6.3 -4 8 C-4.99 7.34 -5.98 6.68 -7 6 C-4.69 4.02 -2.38 2.04 0 0 Z " fill="#858686" transform="translate(653,264)"/>
</svg>
